<svg width="24" height="24" viewBox="0 0 24 24" fill="none" xmlns="http://www.w3.org/2000/svg">
<rect x="0.211548" y="0.895508" width="22.8553" height="22.8553" rx="11.4276" fill="#D14343"/>
<g opacity="0.8">
<path d="M14.9642 7.97558L7.29139 15.6484C7.00911 15.9307 7.00911 16.3884 7.29139 16.6706L7.29215 16.6714C7.57443 16.9537 8.0321 16.9537 8.31438 16.6714L15.9872 8.99857C16.2695 8.71629 16.2695 8.25862 15.9872 7.97634L15.9864 7.97558C15.7042 7.6933 15.2465 7.6933 14.9642 7.97558Z" fill="white"/>
<path d="M7.29141 8.99789L14.9642 16.6707C15.2465 16.953 15.7042 16.953 15.9865 16.6707L15.9872 16.67C16.2695 16.3877 16.2695 15.93 15.9872 15.6477L8.3144 7.9749C8.03212 7.69262 7.57445 7.69262 7.29217 7.9749L7.29141 7.97566C7.00913 8.25794 7.00913 8.71561 7.29141 8.99789Z" fill="white"/>
</g>
</svg>
