<svg width="93" height="53" viewBox="0 0 93 53" fill="none" xmlns="http://www.w3.org/2000/svg">
<rect x="0.5" y="0.03479" width="92" height="52" rx="26" fill="#7585FF" fill-opacity="0.1"/>
<path d="M39.9375 33.5348C39.3573 33.5348 38.8009 33.3043 38.3907 32.8941C37.9805 32.4839 37.75 31.9275 37.75 31.3473V28.2223C37.75 27.9736 37.8488 27.7352 38.0246 27.5594C38.2004 27.3836 38.4389 27.2848 38.6875 27.2848C38.9361 27.2848 39.1746 27.3836 39.3504 27.5594C39.5262 27.7352 39.625 27.9736 39.625 28.2223V31.3473C39.625 31.5198 39.765 31.6598 39.9375 31.6598H53.0625C53.1454 31.6598 53.2249 31.6269 53.2835 31.5683C53.3421 31.5097 53.375 31.4302 53.375 31.3473V28.2223C53.375 27.9736 53.4738 27.7352 53.6496 27.5594C53.8254 27.3836 54.0639 27.2848 54.3125 27.2848C54.5611 27.2848 54.7996 27.3836 54.9754 27.5594C55.1512 27.7352 55.25 27.9736 55.25 28.2223V31.3473C55.25 31.9275 55.0195 32.4839 54.6093 32.8941C54.1991 33.3043 53.6427 33.5348 53.0625 33.5348H39.9375Z" fill="#7585FF"/>
<path d="M51.225 21.9348C51.312 22.0218 51.381 22.1251 51.4281 22.2387C51.4752 22.3524 51.4994 22.4743 51.4994 22.5973C51.4994 22.7203 51.4752 22.8422 51.4281 22.9558C51.381 23.0695 51.312 23.1728 51.225 23.2598C51.138 23.3468 51.0347 23.4158 50.9211 23.4629C50.8074 23.51 50.6856 23.5342 50.5625 23.5342C50.4395 23.5342 50.3177 23.51 50.204 23.4629C50.0903 23.4158 49.987 23.3468 49.9 23.2598L47.4375 20.7985V27.9098C47.4375 28.1584 47.3388 28.3969 47.1629 28.5727C46.9871 28.7485 46.7487 28.8473 46.5 28.8473C46.2514 28.8473 46.0129 28.7485 45.8371 28.5727C45.6613 28.3969 45.5625 28.1584 45.5625 27.9098V20.7985L43.1 23.2598C43.013 23.3468 42.9097 23.4158 42.7961 23.4629C42.6824 23.51 42.5606 23.5342 42.4375 23.5342C42.3145 23.5342 42.1927 23.51 42.079 23.4629C41.9653 23.4158 41.862 23.3468 41.775 23.2598C41.688 23.1728 41.619 23.0695 41.5719 22.9558C41.5248 22.8422 41.5006 22.7203 41.5006 22.5973C41.5006 22.4743 41.5248 22.3524 41.5719 22.2387C41.619 22.1251 41.688 22.0218 41.775 21.9348L45.8375 17.8723C45.9245 17.7852 46.0278 17.7161 46.1414 17.669C46.2551 17.6219 46.377 17.5976 46.5 17.5976C46.6231 17.5976 46.7449 17.6219 46.8586 17.669C46.9723 17.7161 47.0756 17.7852 47.1625 17.8723L51.225 21.9348Z" fill="#7585FF"/>
</svg>
