<svg width="16" height="16" viewBox="0 0 16 16" fill="none" xmlns="http://www.w3.org/2000/svg">
<g clip-path="url(#clip0_319_350)">
<path d="M6.99996 13.3333C6.99996 13.5986 7.10532 13.8529 7.29285 14.0404C7.48039 14.228 7.73474 14.3333 7.99996 14.3333C8.26518 14.3333 8.51953 14.228 8.70707 14.0404C8.8946 13.8529 8.99996 13.5986 8.99996 13.3333V9.00001H13.3333C13.5985 9.00001 13.8529 8.89465 14.0404 8.70711C14.2279 8.51958 14.3333 8.26522 14.3333 8.00001C14.3333 7.73479 14.2279 7.48043 14.0404 7.2929C13.8529 7.10536 13.5985 7.00001 13.3333 7.00001H8.99996V2.66667C8.99996 2.40146 8.8946 2.1471 8.70707 1.95957C8.51953 1.77203 8.26518 1.66667 7.99996 1.66667C7.73474 1.66667 7.48039 1.77203 7.29285 1.95957C7.10532 2.1471 6.99996 2.40146 6.99996 2.66667V7.00001H2.66663C2.40141 7.00001 2.14706 7.10536 1.95952 7.2929C1.77198 7.48043 1.66663 7.73479 1.66663 8.00001C1.66663 8.26522 1.77198 8.51958 1.95952 8.70711C2.14706 8.89465 2.40141 9.00001 2.66663 9.00001H6.99996V13.3333Z" fill="#111111"/>
</g>
<defs>
<clipPath id="clip0_319_350">
<rect width="16" height="16" fill="white"/>
</clipPath>
</defs>
</svg>
