<svg width="20" height="20" viewBox="0 0 20 20" fill="none" xmlns="http://www.w3.org/2000/svg">
<path d="M4.16667 17.5C3.70833 17.5 3.31611 17.3369 2.99 17.0108C2.66389 16.6847 2.50056 16.2922 2.5 15.8333V4.16667C2.5 3.70833 2.66333 3.31611 2.99 2.99C3.31667 2.66389 3.70889 2.50056 4.16667 2.5H15.8333C16.2917 2.5 16.6842 2.66333 17.0108 2.99C17.3375 3.31667 17.5006 3.70889 17.5 4.16667V15.8333C17.5 16.2917 17.3369 16.6842 17.0108 17.0108C16.6847 17.3375 16.2922 17.5006 15.8333 17.5H4.16667ZM4.16667 15.8333H15.8333V4.16667L4.16667 15.8333ZM6.25 7.5V8.54167C6.25 8.72222 6.30917 8.87167 6.4275 8.99C6.54583 9.10833 6.695 9.16722 6.875 9.16667C7.055 9.16611 7.20444 9.10694 7.32333 8.98917C7.44222 8.87139 7.50111 8.72222 7.5 8.54167V7.5H8.54167C8.72222 7.5 8.87167 7.44083 8.99 7.3225C9.10833 7.20417 9.16722 7.055 9.16667 6.875C9.16611 6.695 9.10694 6.54583 8.98917 6.4275C8.87139 6.30917 8.72222 6.25 8.54167 6.25H7.5V5.20833C7.5 5.02778 7.44083 4.87861 7.3225 4.76083C7.20417 4.64306 7.055 4.58389 6.875 4.58333C6.695 4.58278 6.54583 4.64194 6.4275 4.76083C6.30917 4.87972 6.25 5.02889 6.25 5.20833V6.25H5.20833C5.02778 6.25 4.87861 6.30917 4.76083 6.4275C4.64306 6.54583 4.58389 6.695 4.58333 6.875C4.58278 7.055 4.64194 7.20444 4.76083 7.32333C4.87972 7.44222 5.02889 7.50111 5.20833 7.5H6.25ZM13.5625 13.3333H10.6458C10.4653 13.3333 10.3161 13.2742 10.1983 13.1558C10.0806 13.0375 10.0214 12.8883 10.0208 12.7083C10.0203 12.5283 10.0794 12.3792 10.1983 12.2608C10.3172 12.1425 10.4664 12.0833 10.6458 12.0833H13.5625C13.7431 12.0833 13.8925 12.1425 14.0108 12.2608C14.1292 12.3792 14.1881 12.5283 14.1875 12.7083C14.1869 12.8883 14.1281 13.0378 14.0108 13.1567C13.8936 13.2756 13.7442 13.3344 13.5625 13.3333Z" fill="#7E7E7E"/>
</svg>
